<svg xmlns="http://www.w3.org/2000/svg" width="400" height="120" viewBox="0 0 400 120">
  <g fill="none" fill-rule="evenodd">
    <g transform="translate(20 20)">
      <polygon fill="#00D0FF" fill-rule="nonzero" points="0 .317 8.302 34.834 24 49.678 39.799 80 55.083 49.889 71.397 34.723 80 0 62.878 26.879 39.799 34.627 16.402 27.307"/>
      <path fill="#464646" d="M119.796427,49.9100387 L128.22203,24.4112994 L129.679665,20 L139.682701,20 L124.498452,59.7707912 L115.12435,59.7707912 L100,20 L109.973086,20 L119.796427,49.9100387 Z M156.052341,60 C151.314813,60 147.458165,58.6747168 144.482281,56.0241107 C141.506397,53.3735046 140.018477,49.8424418 140.018477,45.4308165 L140.018477,44.6683172 C140.018477,41.7090789 140.645493,39.0630511 141.899545,36.7301546 C143.153596,34.3972582 144.930143,32.5999563 147.229237,31.3381952 C149.528332,30.076434 152.150853,29.4455629 155.096878,29.4455629 C159.515917,29.4455629 162.994365,30.7163824 165.532326,33.2580595 C168.070288,35.7997366 169.339249,39.4034176 169.339249,44.0692106 L169.339249,47.2826006 L148.766936,47.2826006 C149.045614,49.2070133 149.886612,50.7501512 151.289955,51.9120608 C152.693299,53.0739703 154.469845,53.6549164 156.619648,53.6549164 C159.943879,53.6549164 162.541519,52.5565652 164.412643,50.35983 L168.65251,54.6897369 C167.358648,56.3599818 165.606983,57.6625718 163.397464,58.5975459 C161.187944,59.53252 158.739595,60 156.052341,60 Z M154.437905,35.9083165 C152.726025,35.9083165 151.337632,36.4347989 150.272684,37.4877794 C149.207735,38.5407599 148.525979,40.0475887 148.227395,42.0083111 L160.2304,42.0083111 L160.2304,41.3819723 C160.190589,39.639108 159.673052,38.2911316 158.677773,37.3380027 C157.682494,36.3848738 156.269219,35.9083165 154.437905,35.9083165 Z M180.981778,29.7637289 L181.323521,33.7123861 C183.632568,31.0799348 186.727839,29.7637289 190.609428,29.7637289 C194.033187,29.7637289 196.581063,30.6805344 198.253132,32.5141729 C199.925201,34.3478114 200.781128,37.0891506 200.820939,40.7382727 L200.820939,59.7735237 L192.191913,59.7735237 L192.191913,40.9288976 C192.191913,39.2586526 191.793808,38.0468355 190.997584,37.2934097 C190.201361,36.539984 188.87766,36.1632768 187.026441,36.1632768 C184.59796,36.1632768 182.776627,37.1073142 181.562387,38.9954172 L181.562387,59.7735237 L172.933361,59.7735237 L172.933361,29.7637289 L180.981778,29.7637289 Z M216.834738,22.5850999 L216.834738,29.8288435 L222.358509,29.8288435 L222.358509,35.6020526 L216.834738,35.6020526 L216.834738,50.3073967 C216.834738,51.3966869 217.063649,52.1773331 217.521478,52.6493589 C217.979306,53.1213846 218.855138,53.3573939 220.149001,53.3573939 C221.104469,53.3573939 221.950443,53.293853 222.68695,53.1667691 L222.68695,59.1306031 C220.994975,59.6026288 219.253263,59.8386382 217.461761,59.8386382 C211.410465,59.8386382 208.325146,57.0519126 208.205713,51.4783778 L208.205713,35.6020526 L203.488114,35.6020526 L203.488114,29.8288435 L208.205713,29.8288435 L208.205713,26.4855714 L216.834738,22.5850999 Z M245.657715,56.3128916 C243.527818,58.6730204 240.581836,59.8530671 236.819681,59.8530671 C233.356111,59.8530671 230.713684,58.9453388 228.892324,57.1298552 C227.070963,55.3143715 226.140391,52.6547279 226.10058,49.1508444 L226.10058,29.8432723 L234.729606,29.8432723 L234.729606,48.8785233 C234.729606,51.9466906 236.262313,53.4807513 239.327772,53.4807513 C242.253892,53.4807513 244.264326,52.5548685 245.359132,50.7030752 L245.359132,29.8432723 L254.018016,29.8432723 L254.018016,59.7707912 L245.876854,59.7707912 L245.657715,56.3128916 Z M277.006627,37.6882755 C275.832198,37.5430368 274.797123,37.4704185 273.901372,37.4704185 C270.636857,37.4704185 268.497039,38.4779968 267.481855,40.4931837 L267.481855,59.7735237 L258.852829,59.7735237 L258.852829,29.7637289 L266.883202,29.7637289 L267.242989,33.8213146 C268.974774,31.116244 271.373361,29.7637289 274.43882,29.7637289 C275.394288,29.7637289 276.290026,29.8817336 277.12606,30.1177465 L277.006627,37.6882755 Z M295.603954,60 C290.866426,60 287.009777,58.6747168 284.033893,56.0241107 C281.058009,53.3735046 279.570089,49.8424418 279.570089,45.4308165 L279.570089,44.6683172 C279.570089,41.7090789 280.197106,39.0630511 281.451157,36.7301546 C282.705209,34.3972582 284.481755,32.5999563 286.78085,31.3381952 C289.079944,30.076434 291.702465,29.4455629 294.648491,29.4455629 C299.067529,29.4455629 302.545977,30.7163824 305.083939,33.2580595 C307.6219,35.7997366 308.890862,39.4034176 308.890862,44.0692106 L308.890862,47.2826006 L288.318548,47.2826006 C288.597226,49.2070133 289.438224,50.7501512 290.841568,51.9120608 C292.244911,53.0739703 294.021457,53.6549164 296.17126,53.6549164 C299.495492,53.6549164 302.093131,52.5565652 303.964255,50.35983 L308.204123,54.6897369 C306.91026,56.3599818 305.158595,57.6625718 302.949076,58.5975459 C300.739557,59.53252 298.291207,60 295.603954,60 Z M294.502575,35.9083165 C292.790695,35.9083165 291.402302,36.4347989 290.337353,37.4877794 C289.272405,38.5407599 288.590649,40.0475887 288.292065,42.0083111 L300.29507,42.0083111 L300.29507,41.3819723 C300.255259,39.639108 299.737721,38.2911316 298.742442,37.3380027 C297.747163,36.3848738 296.333888,35.9083165 294.502575,35.9083165 Z M311.379648,42.5823034 C311.379648,38.0666635 312.490204,36.4252417 314.711351,33.7479849 C316.932497,31.070728 319.970627,29.7321197 323.825832,29.7321197 C326.917824,29.7321197 329.471614,30.7851582 331.48728,32.891267 L331.48728,20 L340,20 L340,59.7707912 L332.343718,59.7707912 L331.927593,56.1565126 C329.81408,58.5660437 327.09395,59.7707912 323.767123,59.7707912 C320.029336,59.7707912 317.030344,58.4277209 314.770059,55.7415398 C312.509774,53.0553588 311.379648,47.365669 311.379648,42.5823034 Z M320.034064,45.5304567 C320.034064,48.2899919 320.561554,50.4049986 321.616549,51.8755404 C322.671545,53.3460821 324.204252,54.081342 326.214715,54.081342 C328.882063,54.081342 330.763112,53.0556091 331.857919,51.0041126 L331.857919,39.3759979 C330.783018,37.3245014 328.921874,36.2987685 326.274432,36.2987685 C322.114166,36.2987685 320.034064,39.3759672 320.034064,45.5304567 Z"/>
    </g>
  </g>
</svg>
