<svg xmlns="http://www.w3.org/2000/svg" width="280" height="180" viewBox="0 0 280 180">
  <g fill="none" fill-rule="evenodd">
    <polygon fill="#00D0FF" fill-rule="nonzero" points="100 20.317 108.302 54.834 124 69.678 139.799 100 155.083 69.889 171.397 54.723 180 20 162.878 46.879 139.799 54.627 116.402 47.307"/>
    <path fill="#464646" d="M39.7964266,149.910039 L48.2220301,124.411299 L49.6796653,120 L59.6827009,120 L44.4984523,159.770791 L35.1243501,159.770791 L20,120 L29.9730863,120 L39.7964266,149.910039 Z M76.0523414,160 C71.3148134,160 67.4581652,158.674717 64.482281,156.024111 C61.5063968,153.373505 60.0184771,149.842442 60.0184771,145.430817 L60.0184771,144.668317 C60.0184771,141.709079 60.6454934,139.063051 61.8995449,136.730155 C63.1535965,134.397258 64.9301428,132.599956 67.2292373,131.338195 C69.5283317,130.076434 72.1508525,129.445563 75.0968783,129.445563 C79.515917,129.445563 82.9943649,130.716382 85.5323263,133.25806 C88.0702878,135.799737 89.3392494,139.403418 89.3392494,144.069211 L89.3392494,147.282601 L68.7669356,147.282601 C69.0456137,149.207013 69.8866119,150.750151 71.2899552,151.912061 C72.6932986,153.07397 74.469845,153.654916 76.6196476,153.654916 C79.9438794,153.654916 82.5415186,152.556565 84.4126431,150.35983 L88.6525104,154.689737 C87.3586477,156.359982 85.6069829,157.662572 83.3974636,158.597546 C81.1879442,159.53252 78.7395946,160 76.0523414,160 Z M74.4379053,135.908316 C72.7260254,135.908316 71.337632,136.434799 70.2726835,137.487779 C69.207735,138.54076 68.5259791,140.047589 68.2273954,142.008311 L80.2304,142.008311 L80.2304,141.381972 C80.1905888,139.639108 79.6730515,138.291132 78.6777726,137.338003 C77.6824936,136.384874 76.2692186,135.908316 74.4379053,135.908316 Z M100.981778,129.763729 L101.323521,133.712386 C103.632568,131.079935 106.727839,129.763729 110.609428,129.763729 C114.033187,129.763729 116.581063,130.680534 118.253132,132.514173 C119.925201,134.347811 120.781128,137.089151 120.820939,140.738273 L120.820939,159.773524 L112.191913,159.773524 L112.191913,140.928898 C112.191913,139.258653 111.793808,138.046835 110.997584,137.29341 C110.201361,136.539984 108.87766,136.163277 107.026441,136.163277 C104.59796,136.163277 102.776627,137.107314 101.562387,138.995417 L101.562387,159.773524 L92.9333611,159.773524 L92.9333611,129.763729 L100.981778,129.763729 Z M136.834738,122.5851 L136.834738,129.828843 L142.358509,129.828843 L142.358509,135.602053 L136.834738,135.602053 L136.834738,150.307397 C136.834738,151.396687 137.063649,152.177333 137.521478,152.649359 C137.979306,153.121385 138.855138,153.357394 140.149001,153.357394 C141.104469,153.357394 141.950443,153.293853 142.68695,153.166769 L142.68695,159.130603 C140.994975,159.602629 139.253263,159.838638 137.461761,159.838638 C131.410465,159.838638 128.325146,157.051913 128.205713,151.478378 L128.205713,135.602053 L123.488114,135.602053 L123.488114,129.828843 L128.205713,129.828843 L128.205713,126.485571 L136.834738,122.5851 Z M165.657715,156.312892 C163.527818,158.67302 160.581836,159.853067 156.819681,159.853067 C153.356111,159.853067 150.713684,158.945339 148.892324,157.129855 C147.070963,155.314372 146.140391,152.654728 146.10058,149.150844 L146.10058,129.843272 L154.729606,129.843272 L154.729606,148.878523 C154.729606,151.946691 156.262313,153.480751 159.327772,153.480751 C162.253892,153.480751 164.264326,152.554869 165.359132,150.703075 L165.359132,129.843272 L174.018016,129.843272 L174.018016,159.770791 L165.876854,159.770791 L165.657715,156.312892 Z M197.006627,137.688275 C195.832198,137.543037 194.797123,137.470419 193.901372,137.470419 C190.636857,137.470419 188.497039,138.477997 187.481855,140.493184 L187.481855,159.773524 L178.852829,159.773524 L178.852829,129.763729 L186.883202,129.763729 L187.242989,133.821315 C188.974774,131.116244 191.373361,129.763729 194.43882,129.763729 C195.394288,129.763729 196.290026,129.881734 197.12606,130.117746 L197.006627,137.688275 Z M215.603954,160 C210.866426,160 207.009777,158.674717 204.033893,156.024111 C201.058009,153.373505 199.570089,149.842442 199.570089,145.430817 L199.570089,144.668317 C199.570089,141.709079 200.197106,139.063051 201.451157,136.730155 C202.705209,134.397258 204.481755,132.599956 206.78085,131.338195 C209.079944,130.076434 211.702465,129.445563 214.648491,129.445563 C219.067529,129.445563 222.545977,130.716382 225.083939,133.25806 C227.6219,135.799737 228.890862,139.403418 228.890862,144.069211 L228.890862,147.282601 L208.318548,147.282601 C208.597226,149.207013 209.438224,150.750151 210.841568,151.912061 C212.244911,153.07397 214.021457,153.654916 216.17126,153.654916 C219.495492,153.654916 222.093131,152.556565 223.964255,150.35983 L228.204123,154.689737 C226.91026,156.359982 225.158595,157.662572 222.949076,158.597546 C220.739557,159.53252 218.291207,160 215.603954,160 Z M214.502575,135.908316 C212.790695,135.908316 211.402302,136.434799 210.337353,137.487779 C209.272405,138.54076 208.590649,140.047589 208.292065,142.008311 L220.29507,142.008311 L220.29507,141.381972 C220.255259,139.639108 219.737721,138.291132 218.742442,137.338003 C217.747163,136.384874 216.333888,135.908316 214.502575,135.908316 Z M231.379648,142.582303 C231.379648,138.066664 232.490204,136.425242 234.711351,133.747985 C236.932497,131.070728 239.970627,129.73212 243.825832,129.73212 C246.917824,129.73212 249.471614,130.785158 251.48728,132.891267 L251.48728,120 L260,120 L260,159.770791 L252.343718,159.770791 L251.927593,156.156513 C249.81408,158.566044 247.09395,159.770791 243.767123,159.770791 C240.029336,159.770791 237.030344,158.427721 234.770059,155.74154 C232.509774,153.055359 231.379648,147.365669 231.379648,142.582303 Z M240.034064,145.530457 C240.034064,148.289992 240.561554,150.404999 241.616549,151.87554 C242.671545,153.346082 244.204252,154.081342 246.214715,154.081342 C248.882063,154.081342 250.763112,153.055609 251.857919,151.004113 L251.857919,139.375998 C250.783018,137.324501 248.921874,136.298769 246.274432,136.298769 C242.114166,136.298769 240.034064,139.375967 240.034064,145.530457 Z"/>
  </g>
</svg>
